<svg width="24" height="24" viewBox="0 0 24 24" fill="none" xmlns="http://www.w3.org/2000/svg">
<path fill-rule="evenodd" clip-rule="evenodd" d="M11.5919 9.16801C10.9359 9.16801 9.91392 8.40401 8.85192 8.40401C7.43992 8.40401 6.14792 9.26701 5.41992 10.533C3.95592 13.075 5.04292 16.831 6.47092 18.897C7.17192 19.903 7.99792 21.035 9.09392 20.999C10.1449 20.954 10.5399 20.316 11.8159 20.316C13.0829 20.316 13.4419 20.999 14.5559 20.972C15.6879 20.954 16.4069 19.948 17.0979 18.933C17.8979 17.765 18.2299 16.633 18.2479 16.57C18.2209 16.561 16.0469 15.726 16.0199 13.21C16.0019 11.108 17.7359 10.102 17.8169 10.057C16.8289 8.61101 15.3109 8.44901 14.7809 8.41301C13.3969 8.30501 12.2389 9.16801 11.5919 9.16801V9.16801Z" fill="white" stroke="white" stroke-linecap="round" stroke-linejoin="round"/>
<path fill-rule="evenodd" clip-rule="evenodd" d="M13.6505 2.95436C14.5195 2.63084 15.0879 3.10784 14.9201 4.01978C14.7523 4.93171 13.9119 5.93324 13.0429 6.25676C12.174 6.58029 11.6055 6.10329 11.7733 5.19135C11.9411 4.27942 12.7815 3.27788 13.6505 2.95436" fill="white"/>
<path d="M13.6505 2.95436C14.5195 2.63084 15.0879 3.10784 14.9201 4.01978C14.7523 4.93171 13.9119 5.93324 13.0429 6.25676C12.174 6.58029 11.6055 6.10329 11.7733 5.19135C11.9411 4.27942 12.7815 3.27788 13.6505 2.95436" stroke="white" stroke-linecap="round" stroke-linejoin="round"/>
</svg>
