<svg width="34" height="34" viewBox="0 0 34 34" fill="none" xmlns="http://www.w3.org/2000/svg">
<path fill-rule="evenodd" clip-rule="evenodd" d="M14.9231 13.6586L5.89271 22.689C4.697 23.8867 4.697 25.8265 5.89271 27.0242L6.97583 28.1073C8.17353 29.303 10.1133 29.303 11.311 28.1073L20.3414 19.0769C20.8105 18.608 21.4189 18.3038 22.0755 18.2098L23.8455 17.9577C24.5021 17.8638 25.1105 17.5596 25.5796 17.0907L28.114 14.5563C29.3088 13.3588 29.3088 11.4201 28.114 10.2225L23.7788 5.88738C22.5813 4.69255 20.6426 4.69255 19.445 5.88738L16.9106 8.42177C16.4418 8.89087 16.1376 9.49928 16.0436 10.1558L15.7902 11.9312C15.6948 12.5854 15.3907 13.1913 14.9231 13.6586Z" stroke="#CA7A7A" stroke-width="1.5" stroke-linecap="round" stroke-linejoin="round"/>
<path d="M15.6661 18.3339L17.6669 16.3331" stroke="#CA7A7A" stroke-width="1.5" stroke-linecap="round" stroke-linejoin="round"/>
<path d="M25.9397 16.7292L17.2708 8.06027" stroke="#CA7A7A" stroke-width="1.5" stroke-linecap="round" stroke-linejoin="round"/>
</svg>
