<svg width="24" height="24" viewBox="0 0 24 24" fill="none" xmlns="http://www.w3.org/2000/svg">
<path fill-rule="evenodd" clip-rule="evenodd" d="M9.99918 3.49644C9.99918 2.66767 10.671 1.99582 11.4998 1.99582H20.5036C21.3323 1.99582 22.0042 2.66767 22.0042 3.49644V9.49894C22.0042 10.3277 21.3323 10.9996 20.5036 10.9996H19.5384V12.9994C19.5384 13.2017 19.4165 13.3841 19.2296 13.4615C19.0427 13.5389 18.8275 13.4962 18.6845 13.3531L16.331 10.9996H11.4998C10.671 10.9996 9.99918 10.3277 9.99918 9.49894V3.49644Z" stroke="#323232" stroke-width="1.5" stroke-linecap="round" stroke-linejoin="round"/>
<path d="M13.0004 14.0008V18.0667C13.0004 18.8955 12.3286 19.5673 11.4998 19.5673H7.63654L5.34721 21.8566C5.20416 21.9997 4.98901 22.0425 4.80211 21.9651C4.6152 21.8876 4.49333 21.7053 4.49332 21.5029V19.5673H3.49644C2.66767 19.5673 1.99582 18.8955 1.99582 18.0667V12C1.99582 11.1712 2.66767 10.4994 3.49644 10.4994H6.9979" stroke="#323232" stroke-width="1.5" stroke-linecap="round" stroke-linejoin="round"/>
<path d="M14.2832 7.67657H17.709" stroke="#323232" stroke-width="1.5" stroke-linecap="round" stroke-linejoin="round"/>
<path d="M18.0025 8.47652L16.5619 4.47485H15.4414L14.0008 8.47652" stroke="#323232" stroke-width="1.5" stroke-linecap="round" stroke-linejoin="round"/>
<path d="M7.49813 14.306V13.0325" stroke="#323232" stroke-width="1.5" stroke-linecap="round" stroke-linejoin="round"/>
<path d="M7.49813 14.306C7.49704 15.4069 6.94053 16.4329 6.01837 17.0342" stroke="#323232" stroke-width="1.5" stroke-linecap="round" stroke-linejoin="round"/>
<path d="M8.97786 17.0342C8.0557 16.4329 7.49919 15.4069 7.49811 14.306" stroke="#323232" stroke-width="1.5" stroke-linecap="round" stroke-linejoin="round"/>
<path d="M9.24883 14.306H5.74738" stroke="#323232" stroke-width="1.5" stroke-linecap="round" stroke-linejoin="round"/>
</svg>
