<svg width="105" height="104" viewBox="0 0 105 104" fill="none" xmlns="http://www.w3.org/2000/svg">
<path fill-rule="evenodd" clip-rule="evenodd" d="M35.1667 39H17.8333C15.4413 39 13.5 37.0587 13.5 34.6667V17.3333C13.5 14.9413 15.4413 13 17.8333 13H35.1667C37.5587 13 39.5 14.9413 39.5 17.3333V34.6667C39.5 37.0587 37.5587 39 35.1667 39Z" stroke="white" stroke-width="4" stroke-linecap="round" stroke-linejoin="round"/>
<path fill-rule="evenodd" clip-rule="evenodd" d="M35.1667 91H17.8333C15.4413 91 13.5 89.0587 13.5 86.6667V69.3333C13.5 66.9413 15.4413 65 17.8333 65H35.1667C37.5587 65 39.5 66.9413 39.5 69.3333V86.6667C39.5 89.0587 37.5587 91 35.1667 91Z" stroke="white" stroke-width="4" stroke-linecap="round" stroke-linejoin="round"/>
<path fill-rule="evenodd" clip-rule="evenodd" d="M87.1667 39H69.8333C67.4413 39 65.5 37.0587 65.5 34.6667V17.3333C65.5 14.9413 67.4413 13 69.8333 13H87.1667C89.5587 13 91.5 14.9413 91.5 17.3333V34.6667C91.5 37.0587 89.5587 39 87.1667 39Z" stroke="white" stroke-width="4" stroke-linecap="round" stroke-linejoin="round"/>
<path d="M30.8333 52H39.5" stroke="white" stroke-width="4" stroke-linecap="round" stroke-linejoin="round"/>
<path d="M52.5 21.6667V13" stroke="white" stroke-width="4" stroke-linecap="round" stroke-linejoin="round"/>
<path d="M69.8333 52H56.8333C54.4413 52 52.5 50.0587 52.5 47.6667V39" stroke="white" stroke-width="4" stroke-linecap="round" stroke-linejoin="round"/>
<path d="M17.8333 52H13.5" stroke="white" stroke-width="4" stroke-linecap="round" stroke-linejoin="round"/>
<path d="M65.5 78H56.8333C54.4413 78 52.5 79.9413 52.5 82.3333V91" stroke="white" stroke-width="4" stroke-linecap="round" stroke-linejoin="round"/>
<path d="M52.5 65H78.5" stroke="white" stroke-width="4" stroke-linecap="round" stroke-linejoin="round"/>
<path d="M91.5 65V86.6667C91.5 89.0587 89.5587 91 87.1667 91H65.5" stroke="white" stroke-width="4" stroke-linecap="round" stroke-linejoin="round"/>
<path d="M26.5 25.9567C26.487 25.9567 26.4783 25.9653 26.4783 25.9783C26.4783 25.9913 26.487 26 26.5 26C26.513 26 26.5216 25.9913 26.5216 25.9783C26.5216 25.9653 26.513 25.9567 26.5 25.9567" stroke="white" stroke-width="4" stroke-linecap="round" stroke-linejoin="round"/>
<path d="M78.4783 25.9783C78.4653 25.9783 78.4566 25.987 78.4566 26C78.4566 26.013 78.4653 26.0217 78.4783 26.0217C78.4913 26.0217 78.5 26.013 78.5 26C78.5 25.987 78.4913 25.9783 78.4783 25.9783" stroke="white" stroke-width="4" stroke-linecap="round" stroke-linejoin="round"/>
<path d="M82.8117 51.9783C82.7987 51.9783 82.79 51.987 82.79 52C82.79 52.013 82.7987 52.0217 82.8117 52.0217C82.8247 52.0217 82.8334 52.013 82.8334 52C82.8334 51.987 82.8247 51.9783 82.8117 51.9783" stroke="white" stroke-width="4" stroke-linecap="round" stroke-linejoin="round"/>
<path d="M78.4783 77.9783C78.4653 77.9783 78.4566 77.987 78.4566 78C78.4566 78.013 78.4653 78.0217 78.4783 78.0217C78.4913 78.0217 78.5 78.013 78.5 78C78.5 77.987 78.4913 77.9783 78.4783 77.9783" stroke="white" stroke-width="4" stroke-linecap="round" stroke-linejoin="round"/>
<path d="M26.5216 77.9783C26.5086 77.9783 26.5 77.987 26.5 78C26.5 78.013 26.5086 78.0217 26.5216 78.0217C26.5346 78.0217 26.5433 78.013 26.5433 78C26.5433 77.987 26.5346 77.9783 26.5216 77.9783" stroke="white" stroke-width="4" stroke-linecap="round" stroke-linejoin="round"/>
</svg>
