<svg width="26" height="26" viewBox="0 0 26 26" fill="none" xmlns="http://www.w3.org/2000/svg">
<rect x="3.99625" y="3.99622" width="18.0075" height="18.0075" rx="5" stroke="#323232" stroke-width="1.5" stroke-linecap="round" stroke-linejoin="round"/>
<path d="M13 8.49811V11.6814" stroke="#323232" stroke-width="1.5" stroke-linecap="round" stroke-linejoin="round"/>
<path d="M17.5019 12.6819C17.5019 12.1294 17.054 11.6815 16.5014 11.6815H9.49852C8.94601 11.6815 8.49811 12.1294 8.49811 12.6819" stroke="#323232" stroke-width="1.5" stroke-linecap="round" stroke-linejoin="round"/>
<path fill-rule="evenodd" clip-rule="evenodd" d="M16.5014 17.5019H9.62358C9.002 17.5019 8.49811 16.998 8.49811 16.3764V11.2483C8.4983 10.978 8.55308 10.7105 8.65917 10.4619L9.2064 9.18139C9.38375 8.76698 9.79107 8.49811 10.2418 8.49811H15.7581C16.2086 8.49832 16.6156 8.76713 16.7926 9.18139L17.3408 10.4629C17.4469 10.7115 17.5017 10.979 17.5019 11.2493V16.5014C17.5019 17.054 17.054 17.5019 16.5014 17.5019Z" stroke="#323232" stroke-width="1.5" stroke-linecap="round" stroke-linejoin="round"/>
</svg>
