<svg width="24" height="24" viewBox="0 0 24 24" fill="none" xmlns="http://www.w3.org/2000/svg">
<path d="M21 11V8C21 5.23858 18.7614 3 16 3H8C5.23858 3 3 5.23858 3 8V16C3 18.7614 5.23858 21 8 21H12" stroke="#323232" stroke-width="1.5" stroke-linecap="round" stroke-linejoin="round"/>
<path d="M12 14H10C8.89543 14 8 14.8954 8 16V16" stroke="#323232" stroke-width="1.4824" stroke-linecap="round" stroke-linejoin="round"/>
<circle cx="12" cy="9.25" r="2.25" stroke="#323232" stroke-width="1.5" stroke-linecap="round" stroke-linejoin="round"/>
<path fill-rule="evenodd" clip-rule="evenodd" d="M15 17.9949C15 19.6783 17.1183 20.9244 18.0607 21.3957C18.3373 21.5349 18.6635 21.5348 18.94 21.3953C19.8827 20.9238 22 19.6806 22 17.9949V15.5979C21.9919 15.3363 21.7878 15.123 21.5268 15.1035C20.6406 15.0221 19.7923 14.7049 19.0702 14.1848C18.7299 13.9385 18.27 13.9385 17.9298 14.1848C17.2076 14.7049 16.3594 15.0221 15.4732 15.1035C15.2122 15.123 15.0081 15.3363 15 15.5978V17.9949Z" stroke="#323232" stroke-width="1.5" stroke-linecap="round" stroke-linejoin="round"/>
</svg>
